<?xml version="1.0" encoding="UTF-8" standalone="no"?>
<svg
   width="100pt"
   height="70pt"
   viewBox="0 0 100 70"
   version="1.1"
   id="svg7"
   sodipodi:docname="Qt.svg"
   inkscape:version="1.1 (c4e8f9e, 2021-05-24)"
   xmlns:inkscape="http://www.inkscape.org/namespaces/inkscape"
   xmlns:sodipodi="http://sodipodi.sourceforge.net/DTD/sodipodi-0.dtd"
   xmlns="http://www.w3.org/2000/svg"
   xmlns:svg="http://www.w3.org/2000/svg"
   xmlns:rdf="http://www.w3.org/1999/02/22-rdf-syntax-ns#"
   xmlns:cc="http://creativecommons.org/ns#"
   xmlns:dc="http://purl.org/dc/elements/1.1/">
  <defs
     id="defs11" />
  <sodipodi:namedview
     id="namedview9"
     pagecolor="#ffffff"
     bordercolor="#666666"
     borderopacity="1.0"
     inkscape:pageshadow="2"
     inkscape:pageopacity="0.0"
     inkscape:pagecheckerboard="0"
     inkscape:document-units="pt"
     showgrid="false"
     width="10000000pt"
     inkscape:zoom="1.8274336"
     inkscape:cx="490.03148"
     inkscape:cy="226"
     inkscape:current-layer="svg7" />
  <metadata
     id="metadata20">
    <rdf:RDF>
      <cc:Work
         rdf:about="">
        <dc:format>image/svg+xml</dc:format>
        <dc:type
           rdf:resource="http://purl.org/dc/dcmitype/StillImage" />
      </cc:Work>
    </rdf:RDF>
  </metadata>
  <path
     fill="#41cd52"
     d="m 16.044767,1.880304 h 81.942638 v 54.072831 c -4.400429,4.224837 -8.815263,8.435907 -13.240363,12.635169 H 2.9874051 V 14.354114 C 7.3220418,10.180438 11.69368,6.0382468 16.044767,1.880304 Z"
     id="path6"
     style="stroke-width:0.201155" />
  <path
     d="m 28.150065,15.916535 c 3.111153,-1.969752 6.958439,-2.467605 10.61656,-2.43612 3.48333,0.04128 7.139395,0.625761 10.026407,2.615188 2.097406,1.410905 3.460714,3.589244 4.369592,5.842362 1.470232,3.699441 1.902056,7.694049 1.951407,11.625687 0.0058,3.959189 -0.180956,8.004958 -1.550439,11.777212 -0.917099,2.565994 -2.662879,4.844688 -4.965902,6.426786 1.657353,2.569936 3.347616,5.120188 5.004978,7.690115 -2.08301,0.918961 -4.159856,1.843821 -6.244912,2.758838 -1.774571,-2.802132 -3.540912,-5.610166 -5.321648,-8.408355 -2.407901,0.377813 -4.871319,0.348303 -7.29156,0.09249 -2.899352,-0.332561 -5.85422,-1.178708 -8.091451,-3.046137 -1.719044,-1.424681 -2.798593,-3.418042 -3.536792,-5.444865 -1.209098,-3.427884 -1.533988,-7.076164 -1.589505,-10.673283 -0.02879,-3.888344 0.230298,-7.83769 1.455846,-11.568616 0.947945,-2.806067 2.51688,-5.606233 5.167419,-7.2513 z"
     id="path8"
     fill="#ffffff"
     style="stroke-width:0.201155" />
  <path
     d="m 63.46868,15.790594 c 2.179659,-0.0018 4.359308,-0.0018 6.538966,0 0.0058,2.758838 -0.0019,5.51571 0.0039,8.274549 2.786253,0.0037 5.572506,0 8.358769,0.0018 -0.04731,1.790683 -0.0987,3.581376 -0.152165,5.37206 -2.784198,0.0055 -5.566341,-0.0018 -8.350548,0.0037 0.0058,4.52198 -0.01435,9.043949 0.01027,13.56593 0.05341,1.237735 0.02472,2.544351 0.594264,3.687631 0.415373,0.881567 1.533978,1.107863 2.444912,1.137381 1.716989,-0.0055 3.431924,-0.102323 5.148923,-0.131841 0.104868,1.645068 0.205626,3.29211 0.304329,4.937177 -3.415483,0.549015 -6.999571,1.206251 -10.392428,0.179069 -1.42911,-0.405364 -2.761582,-1.312516 -3.34145,-2.664383 -1.038418,-2.300346 -1.122726,-4.860431 -1.167967,-7.330003 -0.0039,-4.460976 0,-8.919985 -0.0019,-13.380961 -1.519583,-0.0037 -3.039176,0.0018 -4.558769,-0.0037 -0.0039,-1.788717 -0.0039,-3.5794 0,-5.370094 1.519593,-0.0055 3.037121,0.0018 4.556714,-0.0037 0.0058,-2.758838 -0.0019,-5.51571 0.0039,-8.274548 z"
     id="path10"
     fill="#ffffff"
     style="stroke-width:0.201155" />
  <path
     fill="#41cd52"
     d="m 35.992712,19.137799 c 2.115902,-0.263681 4.336682,-0.192835 6.339496,0.572633 1.622406,0.613951 3.000109,1.816268 3.728032,3.339329 1.11656,2.308222 1.544264,4.856507 1.760176,7.373306 0.234417,3.349172 0.201516,6.729828 -0.281714,10.059323 -0.339286,1.981562 -0.822506,4.069387 -2.22489,5.631808 -1.422945,1.568331 -3.61699,2.24131 -5.722616,2.398735 -2.22078,0.155459 -4.562879,0 -6.567748,-1.005539 -1.170022,-0.596243 -2.163208,-1.530936 -2.743076,-2.676192 -0.703252,-1.371544 -1.089825,-2.869037 -1.361253,-4.368487 -0.818406,-4.754176 -1.015802,-9.673645 0.102813,-14.400268 0.460605,-1.782817 1.130946,-3.612862 2.492209,-4.956853 1.184407,-1.151156 2.833549,-1.745432 4.478571,-1.967795 z"
     id="path12"
     style="stroke-width:0.201155" />
</svg>
